#N canvas 0 22 583 302 10;
#X obj 37 69 cnv 15 200 200 empty test empty 20 12 0 14 -257472 -262144
0;
#X obj 107 171 nbx 5 14 -1e+37 1e+37 0 0 empty test empty 0 -8 0 10
-257472 -90133 -262144 0 256;
#X msg 374 222 \; test color \$1 \$2 \$3;
#X obj 118 87 dac~;
#X obj 69 203 hsl 128 15 0 127 0 0 empty test empty -2 -8 0 10 -257472
-90133 -262144 0 1;
#X msg 119 118;
#X obj 74 233 hradio 15 1 0 8 empty test empty 0 -8 0 10 -257472 -90133
-262144 0;
#X floatatom 116 145 5 0 0 0 - test -;
#X obj 374 180 pack 0 0;
#X floatatom 395 132 5 0 29 1 Front - -;
#X floatatom 374 74 5 0 0 0 Background - -;
#X obj 395 150 t b f;
#X connect 8 0 2 0;
#X connect 9 0 11 0;
#X connect 10 0 8 0;
#X connect 11 0 8 0;
#X connect 11 1 8 1;
