#N canvas 269 198 1920 1118 12;
#X floatatom 69 210 0 0 0 0 - - -;
#X obj 521 641 *~;
#X obj 644 457 line~;
#X floatatom 519 289 0 0 0 0 - - -;
#X obj 644 431 pack 0 200;
#X obj 265 365 exp;
#X floatatom 265 391 6 0 0 0 - - -;
#X obj 472 464 /;
#X obj 471 380 * 0.001;
#X obj 521 667 +~;
#X obj 456 695 cos~;
#X obj 456 722 *~;
#X obj 537 847 +~;
#X obj 602 589 wrap~;
#X obj 735 633 *~;
#X obj 735 666 +~;
#X obj 658 694 cos~;
#X obj 658 721 *~;
#X obj 472 407 t b f;
#X floatatom 472 490 6 0 0 0 - - -;
#X obj 602 562 +~ 0.5;
#X obj 456 643 -~ 0.5;
#X obj 456 669 *~ 0.5;
#X obj 658 633 -~ 0.5;
#X obj 658 666 *~ 0.5;
#X obj 265 418 - 1;
#X obj 265 339 * 0.05776;
#X obj 265 444 * -1;
#X text 299 308 <-- transposition;
#X text 342 321 (halftones);
#X text 328 385 speed;
#X text 327 399 change;
#X text 563 288 <--window (msec);
#X text 507 457 tape head;
#X obj 526 944 output~;
#X obj 472 521 phasor~;
#X obj 519 316 max 1;
#X text 508 470 rotation freq;
#X obj 522 700 vd~ G09-del;
#X obj 735 695 vd~ G09-del;
#X obj 255 94 delwrite~ G09-del 5000;
#X obj 204 12 adc~;
#X obj 256 62 *~;
#X floatatom 274 30 5 0 0 0 - - -;
#X obj 14 164 fiddle~;
#X obj 14 199 mtof;
#X floatatom 265 309 5 0 0 0 - - -;
#X obj 14 230 *;
#X text 560 62 Ok \, I modified the pitch shift example and made it
use the adc as input just to check that worked. It kinda did \, so
then I added the fiddle~ and mtof to try and figure out the tone and
roughly set the pitch shift amount relative to that to see if it followed
in harmony...it was awful. Needs some maths up in this patch (Dan \,
I'm looking at you);
#X connect 0 0 47 1;
#X connect 1 0 9 0;
#X connect 2 0 1 1;
#X connect 2 0 14 1;
#X connect 3 0 36 0;
#X connect 4 0 2 0;
#X connect 5 0 6 0;
#X connect 6 0 25 0;
#X connect 7 0 19 0;
#X connect 8 0 18 0;
#X connect 9 0 38 0;
#X connect 10 0 11 0;
#X connect 11 0 12 0;
#X connect 12 0 34 0;
#X connect 12 0 34 1;
#X connect 13 0 14 0;
#X connect 13 0 23 0;
#X connect 14 0 15 0;
#X connect 15 0 39 0;
#X connect 16 0 17 0;
#X connect 17 0 12 1;
#X connect 18 0 7 0;
#X connect 18 1 7 1;
#X connect 19 0 35 0;
#X connect 20 0 13 0;
#X connect 21 0 22 0;
#X connect 22 0 10 0;
#X connect 23 0 24 0;
#X connect 24 0 16 0;
#X connect 25 0 27 0;
#X connect 26 0 5 0;
#X connect 27 0 7 0;
#X connect 35 0 1 0;
#X connect 35 0 21 0;
#X connect 35 0 20 0;
#X connect 36 0 8 0;
#X connect 36 0 4 0;
#X connect 38 0 11 1;
#X connect 39 0 17 1;
#X connect 41 0 42 0;
#X connect 41 0 44 0;
#X connect 42 0 40 0;
#X connect 43 0 42 1;
#X connect 44 0 45 0;
#X connect 45 0 47 0;
#X connect 46 0 26 0;
#X connect 47 0 46 0;
