#N canvas -965 224 1366 863 10;
#X floatatom 299 84 0 0 0 0 - - -;
#X obj 362 474 *~;
#X obj 494 252 line~;
#X floatatom 494 114 0 0 0 0 - - -;
#X obj 494 226 pack 0 200;
#X obj 299 138 exp;
#X floatatom 299 166 6 0 0 0 - - -;
#X obj 299 252 /;
#X obj 440 176 * 0.001;
#X obj 632 381 line~;
#X obj 632 356 pack 0 200;
#X floatatom 632 305 0 0 0 0 - - -;
#X obj 632 279 r delay;
#X obj 362 500 +~;
#X obj 299 516 cos~;
#X obj 299 542 *~;
#X obj 384 601 +~;
#X obj 494 391 wrap~;
#X obj 560 464 *~;
#X obj 560 497 +~;
#X obj 495 516 cos~;
#X obj 495 542 *~;
#X obj 440 211 t b f;
#X floatatom 299 282 6 0 0 0 - - -;
#X obj 494 364 +~ 0.5;
#X obj 299 463 -~ 0.5;
#X obj 299 489 *~ 0.5;
#X obj 495 463 -~ 0.5;
#X obj 495 489 *~ 0.5;
#X obj 299 194 - 1;
#X obj 299 112 * 0.05776;
#X obj 299 222 * -1;
#X text 526 115 <--window (msec);
#X obj 299 311 phasor~;
#X obj 632 332 max 1.5;
#X text 635 238 delay;
#X text 632 256 (msec);
#X obj 494 141 max 1;
#X obj 384 630 outlet~;
#X obj 277 -66 inlet;
#X obj 277 3 - 60;
#X obj 494 88 f 100;
#X obj 494 61 loadbang;
#X text 346 166 speed change;
#X text 344 280 tape head rotation freq;
#X obj 362 526 vd~ delay-buffer;
#X obj 560 526 vd~ delay-buffer;
#X floatatom 277 -19 5 0 0 0 - - -;
#X obj 299 58 +;
#X obj 277 -42 unpack 0 0;
#X floatatom 334 -19 5 0 0 0 - - -;
#X obj 277 26 * 0.5;
#X text 333 83 <-- transposition;
#X text 380 -33 Unpack MIDI notes and MIDI bend offset from the note
(if bend was passed in);
#X connect 0 0 30 0;
#X connect 1 0 13 0;
#X connect 2 0 1 1;
#X connect 2 0 18 1;
#X connect 3 0 37 0;
#X connect 4 0 2 0;
#X connect 5 0 6 0;
#X connect 6 0 29 0;
#X connect 7 0 23 0;
#X connect 8 0 22 0;
#X connect 9 0 13 1;
#X connect 9 0 19 1;
#X connect 10 0 9 0;
#X connect 11 0 34 0;
#X connect 12 0 11 0;
#X connect 13 0 45 0;
#X connect 14 0 15 0;
#X connect 15 0 16 0;
#X connect 16 0 38 0;
#X connect 17 0 18 0;
#X connect 17 0 27 0;
#X connect 18 0 19 0;
#X connect 19 0 46 0;
#X connect 20 0 21 0;
#X connect 21 0 16 1;
#X connect 22 0 7 0;
#X connect 22 1 7 1;
#X connect 23 0 33 0;
#X connect 24 0 17 0;
#X connect 25 0 26 0;
#X connect 26 0 14 0;
#X connect 27 0 28 0;
#X connect 28 0 20 0;
#X connect 29 0 31 0;
#X connect 30 0 5 0;
#X connect 31 0 7 0;
#X connect 33 0 1 0;
#X connect 33 0 25 0;
#X connect 33 0 24 0;
#X connect 34 0 10 0;
#X connect 37 0 8 0;
#X connect 37 0 4 0;
#X connect 39 0 49 0;
#X connect 40 0 51 0;
#X connect 41 0 3 0;
#X connect 42 0 41 0;
#X connect 45 0 15 1;
#X connect 46 0 21 1;
#X connect 47 0 40 0;
#X connect 48 0 0 0;
#X connect 49 0 47 0;
#X connect 49 1 50 0;
#X connect 50 0 48 1;
#X connect 51 0 48 0;
