#N canvas 246 184 1347 765 12;
#X obj 235 38 notein;
#X obj -68 -154 adc~;
#X obj -67 -41 *~;
#X obj 235 206 route 1 2 3 4;
#X floatatom 145 247 5 0 0 0 - - -;
#X floatatom 221 248 5 0 0 0 - - -;
#X floatatom 297 248 5 0 0 0 - - -;
#X floatatom 373 248 5 0 0 0 - - -;
#X obj 235 122 poly 4 1;
#X obj 235 80 stripnote;
#X obj 235 164 pack 0 0 0;
#N canvas 100 132 450 300 (subpatch) 0;
#X array in-wave-view 1000 float 0;
#X coords 0 1 999 -1 200 140 1;
#X restore -245 544 graph;
#X obj -233 -41 metro 100;
#X obj -233 -69 tgl 15 0 empty empty empty 17 7 0 10 -262144 -1 -1
1 1;
#X obj 28 -172 vsl 15 128 0 5 0 0 empty empty Mic_Gain 0 -9 0 10 -262144
-1 -1 2540 1;
#X obj -233 -10 tabwrite~ in-wave-view;
#X text -182 92 Read in the MIDI signal and pre-pend a 1-4 looped counter
to the note/velocity Then strip out the key-up signals Re-pack it and
route it to one fo the 4 voices in our "Barbershop Quartet";
#X text 59 -126 Read in from the microphone \, Add gain if needed \,
Write it to a generic named buffer for use by the 4 voices of the quartet
;
#X obj 320 506 metro 100;
#X obj 320 478 tgl 15 0 empty empty empty 17 7 0 10 -262144 -1 -1 1
1;
#N canvas 100 132 450 300 (subpatch) 0;
#X array out-wave-view 1000 float 0;
#X coords 0 1 999 -1 200 140 1;
#X restore -31 544 graph;
#X obj 320 537 tabwrite~ out-wave-view;
#X obj -66 -10 delwrite~ delay-buffer 5000;
#X obj -7 -224 loadbang;
#X obj -7 -201 f 1;
#X obj 212 518 dac~;
#X obj 34 414 +~;
#X obj 410 414 +~;
#X obj 224 463 +~;
#X obj 531 167 bendin;
#X floatatom 531 193 5 0 0 0 - - -;
#X obj 531 218 - 8192;
#X obj 516 287 pack 0 0;
#X obj 591 250 bng 15 250 50 0 empty empty empty 17 7 0 10 -262144
-1 -1;
#X obj 516 318 generic-pitch-shifter;
#X obj 531 245 / 4096;
#X obj 612 250 bng 15 250 50 0 empty empty empty 17 7 0 10 -262144
-1 -1;
#X obj 612 221 delay 100;
#X obj 326 318 generic-pitch-shifter;
#X obj 136 318 generic-pitch-shifter;
#X obj -54 318 generic-pitch-shifter;
#X obj -54 368 *~ 0.25;
#X obj 137 368 *~ 0.25;
#X obj 326 368 *~ 0.25;
#X obj 516 368 *~ 0.25;
#X connect 0 0 9 0;
#X connect 0 1 9 1;
#X connect 1 0 2 0;
#X connect 2 0 15 0;
#X connect 2 0 22 0;
#X connect 3 0 4 0;
#X connect 3 1 5 0;
#X connect 3 2 6 0;
#X connect 3 3 7 0;
#X connect 4 0 40 0;
#X connect 5 0 39 0;
#X connect 6 0 38 0;
#X connect 7 0 32 0;
#X connect 8 0 10 0;
#X connect 8 1 10 1;
#X connect 8 2 10 2;
#X connect 9 0 8 0;
#X connect 9 1 8 1;
#X connect 10 0 3 0;
#X connect 12 0 15 0;
#X connect 13 0 12 0;
#X connect 14 0 2 1;
#X connect 18 0 21 0;
#X connect 19 0 18 0;
#X connect 23 0 24 0;
#X connect 24 0 14 0;
#X connect 26 0 28 0;
#X connect 27 0 28 1;
#X connect 28 0 21 0;
#X connect 28 0 25 0;
#X connect 28 0 25 1;
#X connect 29 0 30 0;
#X connect 29 1 33 0;
#X connect 29 1 37 0;
#X connect 30 0 31 0;
#X connect 31 0 35 0;
#X connect 32 0 34 0;
#X connect 33 0 32 0;
#X connect 34 0 44 0;
#X connect 35 0 32 1;
#X connect 36 0 32 0;
#X connect 37 0 36 0;
#X connect 38 0 43 0;
#X connect 39 0 42 0;
#X connect 40 0 41 0;
#X connect 41 0 26 0;
#X connect 42 0 26 1;
#X connect 43 0 27 0;
#X connect 44 0 27 1;
