#N canvas -24 38 1366 686 12;
#X text 19 49 ARGUMENTS FOR NOTES:;
#X text 19 71 pitch in halftones;
#X text 19 95 amplitude (dB);
#X text 19 143 sample number;
#X text 19 119 duration (msec);
#X text 19 167 start location (msec);
#X text 19 191 rise time (msec);
#X text 19 215 decay time (msec);
#X obj 14 298 sampvoice;
#X obj 631 17 r note;
#X obj 631 44 unpack 0 0 0 0 0 0 0;
#X obj 604 76 t b f;
#X obj 544 109 f;
#X obj 580 109 + 1;
#X obj 544 136 mod 1e+006;
#X obj 544 163 makenote 64;
#X obj 544 217 stripnote;
#X obj 617 272 pack 0 0 0 0 0 0 0 0;
#X obj 578 574 output~;
#X floatatom 349 5 5 0 0 0 - - -;
#X obj 314 109 send note;
#X floatatom 232 39 5 0 0 0 - - -;
#X floatatom 457 188 5 0 0 0 - - -;
#X floatatom 302 5 5 0 0 0 - - -;
#X obj 292 45 pack 0 0 0 0 0 0 0;
#X floatatom 400 7 5 0 0 0 - - -;
#X floatatom 450 7 5 0 0 0 - - -;
#X floatatom 496 7 5 0 0 0 - - -;
#X floatatom 544 9 5 0 0 0 - - -;
#X floatatom 254 5 5 0 0 0 - - -;
#X floatatom 199 185 5 0 0 0 - - -;
#X floatatom 271 154 5 0 0 0 - - -;
#X obj 175 114 notein;
#X obj 226 226 * 1;
#X obj 263 242 *;
#X floatatom 329 228 5 0 0 0 - - -;
#X obj 300 288 + 1;
#X obj 297 262 * -1;
#X floatatom 333 291 5 0 0 0 - - -;
#X obj 204 274 *;
#X obj 238 302 +;
#X floatatom 179 242 5 0 0 0 - - -;
#X obj 979 143 delwrite~ G09-del 5000;
#X obj 968 41 adc~;
#X floatatom 1022 65 5 0 0 0 - - -;
#X obj 979 101 *~;
#X obj 617 306 route 1 2 3 4;
#X obj 544 190 poly 4 1;
#X obj 444 467 +~;
#X obj 592 528 +~;
#X obj 766 471 +~;
#X text 47 10;
#X obj 345 182 moses 0.1;
#X floatatom 500 356 5 0 0 0 - - -;
#X floatatom 602 356 5 0 0 0 - - -;
#X floatatom 686 356 5 0 0 0 - - -;
#X floatatom 770 356 5 0 0 0 - - -;
#X obj 437 105 spigot;
#X obj 690 394 generic-pitch-shifter;
#X obj 368 395 generic-pitch-shifter;
#X obj 853 394 generic-pitch-shifter;
#X obj 531 394 generic-pitch-shifter;
#X connect 9 0 10 0;
#X connect 10 0 11 0;
#X connect 10 1 17 2;
#X connect 10 2 15 2;
#X connect 10 2 17 3;
#X connect 10 3 17 4;
#X connect 10 4 17 5;
#X connect 10 5 17 6;
#X connect 10 6 17 7;
#X connect 11 0 12 0;
#X connect 11 1 17 1;
#X connect 12 0 13 0;
#X connect 12 0 15 0;
#X connect 12 0 22 0;
#X connect 13 0 14 0;
#X connect 14 0 12 1;
#X connect 15 0 47 0;
#X connect 15 1 47 1;
#X connect 16 0 17 0;
#X connect 17 0 46 0;
#X connect 19 0 24 2;
#X connect 21 0 20 0;
#X connect 23 0 24 1;
#X connect 24 0 20 0;
#X connect 25 0 24 3;
#X connect 26 0 24 4;
#X connect 27 0 24 5;
#X connect 28 0 24 6;
#X connect 29 0 24 0;
#X connect 30 0 33 0;
#X connect 31 0 52 0;
#X connect 31 0 34 0;
#X connect 32 0 30 0;
#X connect 32 1 31 0;
#X connect 33 0 57 0;
#X connect 34 0 40 0;
#X connect 35 0 37 0;
#X connect 35 0 34 1;
#X connect 36 0 38 0;
#X connect 37 0 36 0;
#X connect 38 0 39 1;
#X connect 39 0 40 1;
#X connect 40 0 23 0;
#X connect 41 0 39 0;
#X connect 43 0 45 0;
#X connect 44 0 45 1;
#X connect 45 0 42 0;
#X connect 46 0 53 0;
#X connect 46 1 54 0;
#X connect 46 2 55 0;
#X connect 46 3 56 0;
#X connect 47 0 16 0;
#X connect 47 2 16 1;
#X connect 48 0 49 0;
#X connect 49 0 18 1;
#X connect 49 0 18 0;
#X connect 50 0 49 1;
#X connect 52 1 57 1;
#X connect 53 0 59 0;
#X connect 54 0 61 0;
#X connect 55 0 58 0;
#X connect 56 0 60 0;
#X connect 57 0 29 0;
#X connect 58 0 50 0;
#X connect 59 0 48 0;
#X connect 60 0 50 1;
#X connect 61 0 48 1;
