#N canvas 1 83 1278 698 12;
#X text 19 49 ARGUMENTS FOR NOTES:;
#X text 19 71 pitch in halftones;
#X text 19 95 amplitude (dB);
#X text 19 143 sample number;
#X text 19 119 duration (msec);
#X text 19 167 start location (msec);
#X text 19 191 rise time (msec);
#X text 19 215 decay time (msec);
#X text 47 10 POLYPHONIC SAMPLER;
#X obj 14 298 sampvoice;
#X obj 631 17 r note;
#X obj 631 44 unpack 0 0 0 0 0 0 0;
#X obj 604 76 t b f;
#X obj 544 109 f;
#X obj 580 109 + 1;
#X obj 544 136 mod 1e+06;
#X obj 544 163 makenote 64;
#X obj 544 217 stripnote;
#X obj 617 272 pack 0 0 0 0 0 0 0 0;
#X text 335 203 allocate sampler voice;
#X text 361 228 drop note off again;
#X obj 531 510 output~;
#X text 249 108 increment mod 1e+06 to make tag;
#X text 276 127 (acts like a MIDI pitch to;
#X text 277 146 identify the note to "poly");
#X text 258 175 supply delayed note-off message;
#X floatatom 349 5 5 0 0 0 - - -;
#X obj 260 71 send note;
#X floatatom 232 39 5 0 0 0 - - -;
#X floatatom 500 261 5 0 0 0 - - -;
#X floatatom 302 5 5 0 0 0 - - -;
#X obj 292 45 pack 0 0 0 0 0 0 0;
#X floatatom 400 7 5 0 0 0 - - -;
#X floatatom 450 7 5 0 0 0 - - -;
#X floatatom 496 7 5 0 0 0 - - -;
#X floatatom 544 9 5 0 0 0 - - -;
#X floatatom 254 5 5 0 0 0 - - -;
#X floatatom 184 136 5 0 0 0 - - -;
#X floatatom 198 98 5 0 0 0 - - -;
#X obj 160 65 notein;
#X obj 211 177 * 1;
#X obj 229 210 *;
#X floatatom 281 192 5 0 0 0 - - -;
#X obj 285 239 + 1;
#X obj 282 213 * -1;
#X floatatom 318 242 5 0 0 0 - - -;
#X obj 189 225 *;
#X obj 223 253 +;
#X floatatom 164 193 5 0 0 0 - - -;
#X obj 498 386 generic-pitch-shifter;
#X obj 899 412 delwrite~ G09-del 5000;
#X obj 617 300 route 1 2;
#X obj 544 190 poly 2 1;
#X obj 545 370 bng 15 250 50 0 empty empty empty 17 7 0 10 -262144
-1 -1;
#X obj 711 370 bng 15 250 50 0 empty empty empty 17 7 0 10 -262144
-1 -1;
#X obj 689 389 generic-pitch-shifter;
#X obj 888 310 adc~;
#X floatatom 942 334 5 0 0 0 - - -;
#X obj 899 370 *~;
#X connect 10 0 11 0;
#X connect 11 0 12 0;
#X connect 11 1 18 2;
#X connect 11 2 16 2;
#X connect 11 2 18 3;
#X connect 11 3 18 4;
#X connect 11 4 18 5;
#X connect 11 5 18 6;
#X connect 11 6 18 7;
#X connect 12 0 13 0;
#X connect 12 1 18 1;
#X connect 13 0 14 0;
#X connect 13 0 16 0;
#X connect 13 0 29 0;
#X connect 14 0 15 0;
#X connect 15 0 13 1;
#X connect 16 0 52 0;
#X connect 16 1 52 1;
#X connect 17 0 18 0;
#X connect 18 0 51 0;
#X connect 26 0 31 2;
#X connect 28 0 27 0;
#X connect 30 0 31 1;
#X connect 31 0 27 0;
#X connect 32 0 31 3;
#X connect 33 0 31 4;
#X connect 34 0 31 5;
#X connect 35 0 31 6;
#X connect 36 0 31 0;
#X connect 37 0 40 0;
#X connect 38 0 41 0;
#X connect 39 0 37 0;
#X connect 39 1 38 0;
#X connect 40 0 36 0;
#X connect 41 0 47 0;
#X connect 42 0 44 0;
#X connect 42 0 41 1;
#X connect 43 0 45 0;
#X connect 44 0 43 0;
#X connect 45 0 46 1;
#X connect 46 0 47 1;
#X connect 47 0 30 0;
#X connect 48 0 46 0;
#X connect 49 0 21 0;
#X connect 51 0 49 0;
#X connect 51 0 53 0;
#X connect 51 1 54 0;
#X connect 51 1 55 0;
#X connect 52 0 17 0;
#X connect 52 2 17 1;
#X connect 55 0 21 1;
#X connect 56 0 58 0;
#X connect 57 0 58 1;
#X connect 58 0 50 0;
